<svg id="Group_19" data-name="Group 19" xmlns="http://www.w3.org/2000/svg" width="30" height="28.683" viewBox="0 0 30 28.683">
  <path id="Path_12" data-name="Path 12" d="M26.717,43.468V50.56a1.639,1.639,0,0,1-1.64,1.639H9.869a2.37,2.37,0,0,1-2.128-1.564L3.2,36.116a1.639,1.639,0,0,0-3.13.978l5.39,17.233a1.64,1.64,0,0,0,1.565,1.15H28.356A1.64,1.64,0,0,0,30,53.838V43.468a1.64,1.64,0,0,0-3.279,0Z" transform="translate(0.004 -34.18)"/>
  <circle id="Ellipse_14" data-name="Ellipse 14" cx="2.857" cy="2.857" r="2.857" transform="translate(6.819 22.969)"/>
  <circle id="Ellipse_15" data-name="Ellipse 15" cx="2.857" cy="2.857" r="2.857" transform="translate(21.864 22.969)"/>
  <path id="Path_13" data-name="Path 13" d="M221.1,31.766h7.649a4.1,4.1,0,0,0,4.1-4.1V20.019a4.1,4.1,0,0,0-4.1-4.1H221.1a4.1,4.1,0,0,0-4.1,4.1v7.649A4.1,4.1,0,0,0,221.1,31.766Z" transform="translate(-208.03 -15.921)"/>
</svg>
