<svg xmlns="http://www.w3.org/2000/svg" width="30.158" height="37.698" viewBox="0 0 30.158 37.698"><defs><style>.a{fill:$color-dark;}</style></defs><g transform="translate(-0.03)"><path class="a" d="M27.044,37.7H3.173A3.147,3.147,0,0,1,.03,34.554V3.144A3.148,3.148,0,0,1,3.173,0H27.044a3.147,3.147,0,0,1,3.143,3.144v31.41A3.147,3.147,0,0,1,27.044,37.7ZM3.173,1.257A1.889,1.889,0,0,0,1.287,3.144v31.41a1.89,1.89,0,0,0,1.887,1.887H27.044a1.889,1.889,0,0,0,1.887-1.887V3.144a1.889,1.889,0,0,0-1.887-1.887Z"/><path class="a" d="M20.685,27.309a5.655,5.655,0,1,1,5.655-5.655A5.661,5.661,0,0,1,20.685,27.309Zm0-10.053a4.4,4.4,0,1,0,4.4,4.4A4.4,4.4,0,0,0,20.685,17.257Z" transform="translate(-5.576 -5.947)"/><path class="a" d="M22.543,26.026a2.513,2.513,0,1,1,2.513-2.513A2.516,2.516,0,0,1,22.543,26.026Zm0-3.77A1.257,1.257,0,1,0,23.8,23.513,1.258,1.258,0,0,0,22.543,22.257Z" transform="translate(-7.434 -7.806)"/><path class="a" d="M12.3,45.8a3.267,3.267,0,0,1-1.257-6.283l5.916-2.465a.628.628,0,0,1,.821.822l-2.465,5.915A3.258,3.258,0,0,1,12.3,45.8Zm3.734-7-4.507,1.877A2.011,2.011,0,1,0,14.153,43.3Z" transform="translate(-3.345 -13.753)"/><path class="a" d="M12.6,54.053H3.173A3.147,3.147,0,0,1,.03,50.909v-6.28A.628.628,0,0,1,.658,44H3.8a.628.628,0,0,1,.628.628,5.032,5.032,0,0,0,5.026,5.026H12.6a.628.628,0,0,1,.628.628v3.141A.628.628,0,0,1,12.6,54.053Zm-11.309-8.8v5.652A1.89,1.89,0,0,0,3.173,52.8h8.794V50.911H9.454A6.292,6.292,0,0,1,3.2,45.257Z" transform="translate(0 -16.355)"/><path class="a" d="M16.6,30.132a12.656,12.656,0,0,1-2.837-.333.628.628,0,0,1-.439-.854l.851-2.044-3.5,1.456a.627.627,0,0,1-.567-.042A12.547,12.547,0,1,1,16.6,30.132Zm-1.821-1.411a11.108,11.108,0,0,0,1.82.155,11.341,11.341,0,1,0-6.1-1.8L15.1,25.154a.628.628,0,0,1,.821.822Z" transform="translate(-1.487 -1.859)"/></g></svg>