<svg xmlns="http://www.w3.org/2000/svg" width="42" height="42" viewBox="0 0 42 42"><defs><style>.a{fill:$color-dark;}</style></defs><g transform="translate(0 0)"><path class="a" d="M62.461,61.23A1.23,1.23,0,1,1,61.23,60,1.231,1.231,0,0,1,62.461,61.23Zm0,0" transform="translate(-55.078 -55.078)"/><path class="a" d="M122.461,61.23A1.23,1.23,0,1,1,121.23,60,1.231,1.231,0,0,1,122.461,61.23Zm0,0" transform="translate(-110.157 -55.078)"/><path class="a" d="M182.461,61.23A1.23,1.23,0,1,1,181.23,60,1.231,1.231,0,0,1,182.461,61.23Zm0,0" transform="translate(-165.235 -55.078)"/><path class="a" d="M41.824,38.4l-2.61-4.35a1.231,1.231,0,0,0-1.925-.237l-.87.87L31.2,29.458l2.407-2.407a6.143,6.143,0,1,0-1.614-11.707V1.23A1.23,1.23,0,0,0,30.761,0H1.23A1.23,1.23,0,0,0,0,1.23V30.761a1.23,1.23,0,0,0,1.23,1.23H15.112a6.146,6.146,0,1,0,11.5,2.056L29.458,31.2l5.221,5.221-.87.87a1.231,1.231,0,0,0,.237,1.925l4.351,2.61a1.231,1.231,0,0,0,1.5-.185l1.74-1.74a1.231,1.231,0,0,0,.185-1.5ZM28.385,21.83l-.815.816a3.7,3.7,0,0,0-.722-1.018l-5.22-5.22a1.23,1.23,0,0,0-1.74,0l-3.28,3.28H2.461V12.3h27.07V17.3a6.181,6.181,0,0,0-1.146,4.533Zm-5.018,3.277-4.35-4.35,1.74-1.74,4.35,4.351a1.23,1.23,0,1,1-1.74,1.74ZM2.461,2.461h27.07V9.843H2.461Zm0,19.687H16.928l4.7,4.7a3.666,3.666,0,0,0,1.02.72l-1.259,1.259a6.2,6.2,0,0,0-3.851.708c-.023,0-.046,0-.069,0H2.461ZM24.4,32.772a1.23,1.23,0,0,0-.319,1.184,3.68,3.68,0,0,1-5.14,4.276l2.462-2.462a1.23,1.23,0,0,0-1.74-1.74L17.2,36.491a3.675,3.675,0,0,1,4.275-5.14,1.229,1.229,0,0,0,1.184-.319l7.926-7.926a1.23,1.23,0,0,0,.319-1.184,3.651,3.651,0,0,1,.938-3.554,3.7,3.7,0,0,1,4.2-.72l-2.461,2.461a1.23,1.23,0,0,0,1.74,1.74l2.461-2.46a3.7,3.7,0,0,1-.72,4.2,3.651,3.651,0,0,1-3.553.938,1.231,1.231,0,0,0-1.184.319ZM38.838,39.22l-2.175-1.305,1.252-1.252,1.305,2.175Zm0,0" transform="translate(0 0)"/><path class="a" d="M62.461,181.23A1.23,1.23,0,1,1,61.23,180,1.231,1.231,0,0,1,62.461,181.23Zm0,0" transform="translate(-55.078 -165.235)"/><path class="a" d="M122.461,181.23a1.23,1.23,0,1,1-1.23-1.23A1.231,1.231,0,0,1,122.461,181.23Zm0,0" transform="translate(-110.157 -165.235)"/><path class="a" d="M182.461,181.23a1.23,1.23,0,1,1-1.23-1.23A1.231,1.231,0,0,1,182.461,181.23Zm0,0" transform="translate(-165.235 -165.235)"/><path class="a" d="M62.461,301.23A1.23,1.23,0,1,1,61.23,300,1.231,1.231,0,0,1,62.461,301.23Zm0,0" transform="translate(-55.078 -275.391)"/><path class="a" d="M122.461,301.23a1.23,1.23,0,1,1-1.23-1.23A1.231,1.231,0,0,1,122.461,301.23Zm0,0" transform="translate(-110.157 -275.391)"/><path class="a" d="M182.461,301.23a1.23,1.23,0,1,1-1.23-1.23A1.231,1.231,0,0,1,182.461,301.23Zm0,0" transform="translate(-165.235 -275.391)"/></g></svg>