<svg xmlns="http://www.w3.org/2000/svg" width="39.885" height="39.884" viewBox="0 0 39.885 39.884"><defs><style>.a{fill:#4298d3;}</style></defs><g transform="translate(-4.556 -4.559)"><path class="a" d="M59.138,27.2a4.957,4.957,0,1,0-4.958,4.958A4.957,4.957,0,0,0,59.138,27.2Zm-8.741,0a3.783,3.783,0,1,1,3.783,3.784A3.783,3.783,0,0,1,50.4,27.2Z" transform="translate(-29.682 -11.753)"/><path class="a" d="M44.4,43.647,39.616,31.1a.587.587,0,0,0-.549-.378H30.01l.166-.268c3.485-5.77,5.239-10.818,5.214-15a10.891,10.891,0,1,0-21.782,0c-.025,4.185,1.729,9.233,5.214,15,.055.092.11.179.166.268H9.929a.587.587,0,0,0-.549.378L4.595,43.647a.586.586,0,0,0,.549.8h38.71a.586.586,0,0,0,.549-.8ZM14.782,15.45a9.717,9.717,0,0,1,19.434,0c.05,8.341-7.746,18.627-9.717,21.093C22.528,34.079,14.731,23.8,14.782,15.45Zm9.27,22.4a.587.587,0,0,0,.894,0A62.305,62.305,0,0,0,29.273,31.9h9.389l.751,1.971L21.066,40.392l-6.54-8.5h5.2a62.306,62.306,0,0,0,4.328,5.959Zm-3.006,3.791h0l10.946-3.892,4.246,5.516H16.48Zm-10.712-9.75h2.711L19.9,40.805l-6.925,2.463H6Zm27.39,11.375-4.566-5.932,6.676-2.374L43,43.269Z"/></g></svg>