<svg xmlns="http://www.w3.org/2000/svg" width="47.164" height="42.558" viewBox="0 0 47.164 42.558"><defs><style>.a{fill:$color-dark;}</style></defs><g transform="translate(0 -25)"><path class="a" d="M44.4,25H2.763A2.767,2.767,0,0,0,0,27.763V55.214a2.767,2.767,0,0,0,2.763,2.763H16.3v6.817H8.843a1.382,1.382,0,0,0,0,2.763H38.32a1.382,1.382,0,0,0,0-2.763H30.859V57.978H44.4a2.767,2.767,0,0,0,2.763-2.763V27.763A2.767,2.767,0,0,0,44.4,25ZM28.1,64.794H19.068V57.978H28.1Zm16.3-9.58H2.763V27.763H44.4C44.4,55.81,44.409,55.214,44.4,55.214Z"/></g></svg>