<svg xmlns="http://www.w3.org/2000/svg" width="74" height="21.058" viewBox="0 0 74 21.058"><defs><style>.a{fill:$color-dark;}</style></defs><g transform="translate(0 -30.597)"><path class="a" d="M513.159,446.317A3.159,3.159,0,1,0,510,443.159,3.159,3.159,0,0,0,513.159,446.317Zm0-4.212a1.053,1.053,0,1,1-1.053,1.053A1.053,1.053,0,0,1,513.159,442.106Zm0,0" transform="translate(-445.476 -406.244)"/><path class="a" d="M41.053,450A1.053,1.053,0,0,0,40,451.053v6.318a1.053,1.053,0,0,0,1.053,1.053H70.535a1.053,1.053,0,0,0,1.053-1.053v-6.318A1.053,1.053,0,0,0,70.535,450Zm28.429,6.318H42.106v-4.212H69.482Zm0,0" transform="translate(-35.788 -415.191)"/><path class="a" d="M380,450h2.106v2.106H380Zm0,0" transform="translate(-332.897 -415.191)"/><path class="a" d="M420,450h2.106v2.106H420Zm0,0" transform="translate(-367.939 -415.191)"/><path class="a" d="M380,480h2.106v2.106H380Zm0,0" transform="translate(-332.897 -442.032)"/><path class="a" d="M32.067,30.6H3.7A3.462,3.462,0,0,0,0,33.756V44.285a3.462,3.462,0,0,0,3.7,3.159H7.67l1,3.414a1.214,1.214,0,0,0,1.2.8H14.8a1.214,1.214,0,0,0,1.2-.8l1-3.414H57l1,3.414a1.214,1.214,0,0,0,1.2.8h4.933a1.214,1.214,0,0,0,1.2-.8l1-3.414H70.3A3.462,3.462,0,0,0,74,44.285V33.756A3.462,3.462,0,0,0,70.3,30.6H32.067ZM13.837,49.55H10.83l-.617-2.106h4.24Zm49.333,0H60.163l-.617-2.106h4.24Zm8.363-15.794V44.285A1.154,1.154,0,0,1,70.3,45.338H3.7a1.154,1.154,0,0,1-1.233-1.053V33.756A1.154,1.154,0,0,1,3.7,32.7H70.3A1.154,1.154,0,0,1,71.533,33.756ZM39.467,30.6h0Zm0,0" transform="translate(0 0)"/><path class="a" d="M420,480h2.106v2.106H420Zm0,0" transform="translate(-367.939 -442.032)"/><path class="a" d="M380,510h2.106v2.106H380Zm0,0" transform="translate(-332.897 -468.874)"/><path class="a" d="M420,510h2.106v2.106H420Zm0,0" transform="translate(-367.939 -468.874)"/><path class="a" d="M460,450h2.106v2.106H460Zm0,0" transform="translate(-402.98 -415.191)"/><path class="a" d="M460,480h2.106v2.106H460Zm0,0" transform="translate(-402.98 -442.032)"/></g></svg>